<svg fill="none" height="50" viewBox="0 0 50 50" width="50" xmlns="http://www.w3.org/2000/svg"><path d="m42.7917 13.1042-3.2083-3.20835-2.9375-2.9375c-.1942-.19424-.4248-.34833-.6786-.45345-.2538-.10513-.5258-.15924-.8006-.15924-.2747 0-.5467.05411-.8005.15924-.2538.10512-.4844.25921-.6786.45345-.1943.19425-.3484.42486-.4535.67865-.1051.2538-.1592.52581-.1592.80052s.0541.54672.1592.80052.2592.4844.4535.67865l2.0833 2.08331-1.7292 5.1875c-.3656 1.1021-.417 2.2843-.1484 3.4141.2686 1.1297.8467 2.1622 1.6693 2.9818l6.1458 6.25v9.75c0 .5525-.2195 1.0824-.6102 1.4731s-.9206.6102-1.4731.6102c-.5526 0-1.0825-.2195-1.4732-.6102s-.6102-.9206-.6102-1.4731v-4.1667c0-1.6576-.6584-3.2473-1.8305-4.4194s-2.7618-1.8306-4.4195-1.8306h-2.125v-18.75c0-1.65762-.6584-3.24733-1.8305-4.41943s-2.7618-1.83058-4.4195-1.83058h-12.5c-1.65756 0-3.24727.65848-4.41937 1.83058s-1.83058 2.76181-1.83058 4.41943v29.1667c0 1.6576.65848 3.2473 1.83058 4.4194s2.76181 1.8306 4.41937 1.8306h12.5c1.6577 0 3.2474-.6585 4.4195-1.8306s1.8305-2.7618 1.8305-4.4194v-6.25h2.0834c.5525 0 1.0824.2194 1.4731.6101s.6102.9207.6102 1.4732v4.1667c0 1.6576.6585 3.2473 1.8306 4.4194s2.7618 1.8306 4.4194 1.8306 3.2473-.6585 4.4194-1.8306 1.8306-2.7618 1.8306-4.4194v-19.1042c.0025-1.3689-.2649-2.7248-.7868-3.9902-.5219-1.2655-1.2881-2.4157-2.2549-3.3848zm-17.7916 26.4792c0 .5525-.2195 1.0824-.6102 1.4731s-.9206.6102-1.4732.6102h-12.5c-.55249 0-1.08239-.2195-1.47309-.6102s-.6102-.9206-.6102-1.4731v-14.5834h16.66669zm0-18.75h-16.66669v-10.4167c0-.55255.2195-1.08245.6102-1.47315s.9206-.6102 1.47309-.6102h12.5c.5526 0 1.0825.2195 1.4732.6102s.6102.9206.6102 1.47315zm16.6666 2.9583-3.2083-3.2083c-.2642-.2695-.4503-.6056-.5383-.9725-.0881-.3669-.0748-.7509.0383-1.1109l1.0625-3.2083.8125.8333c1.1573 1.1556 1.8155 2.7188 1.8333 4.3542z" fill="rgb(0,0,0)"/></svg>