<svg id="Capa_1" enable-background="new 0 0 357.853 357.853" height="512" viewBox="0 0 357.853 357.853" width="512" xmlns="http://www.w3.org/2000/svg"><g><g id="cloud_rain"><path d="m76.512 249.989c-6.309-4.218-14.842-2.522-19.06 3.786-.006.01-.013.019-.019.029l-27.517 41.276c-4.273 6.283-2.643 14.841 3.64 19.114s14.841 2.643 19.114-3.64c.047-.069.094-.139.14-.21l27.517-41.276c4.215-6.322 2.506-14.863-3.815-19.079z"/><path d="m145.304 249.989c-6.308-4.218-14.84-2.524-19.058 3.784-.007.01-.014.021-.021.031l-55.034 82.551c-4.273 6.284-2.643 14.841 3.641 19.114s14.841 2.643 19.114-3.641c.047-.069.094-.139.14-.209l55.034-82.551c4.214-6.322 2.506-14.863-3.816-19.079z"/><path d="m195.018 253.805-55.034 82.551c-4.273 6.283-2.643 14.841 3.64 19.114s14.841 2.643 19.114-3.64c.047-.07.094-.14.14-.21l55.034-82.551c4.157-6.361 2.37-14.887-3.991-19.044-6.278-4.104-14.685-2.422-18.903 3.78z"/><path d="m263.811 253.805-27.517 41.276c-4.273 6.283-2.643 14.841 3.64 19.114s14.841 2.643 19.114-3.64c.047-.07.094-.14.14-.21l27.517-41.276c4.157-6.361 2.37-14.887-3.991-19.044-6.278-4.104-14.686-2.422-18.903 3.78z"/><path d="m261.499 55.058c-3.003 0-6.004.168-8.988.504-22.544-48.206-79.898-69.01-128.104-46.466-29.791 13.932-50.42 42.096-54.714 74.703-37.318 7.133-61.787 43.167-54.655 80.484 6.2 32.438 34.575 55.893 67.6 55.878h178.861c45.592 0 82.551-36.959 82.551-82.551s-36.959-82.552-82.551-82.552zm0 137.586h-178.861c-22.796 0-41.276-18.48-41.276-41.276s18.48-41.276 41.276-41.276c9.055-.035 17.86 2.968 25.005 8.53 6.093 4.54 14.713 3.281 19.253-2.812 4.416-5.927 3.36-14.284-2.391-18.926-7.932-6.102-17.121-10.362-26.903-12.472 6.551-37.391 42.173-62.392 79.564-55.841 25.149 4.406 45.783 22.389 53.584 46.699 2.135 6.818 3.224 13.919 3.232 21.063 0 7.599 6.16 13.759 13.759 13.759s13.759-6.16 13.759-13.759c-.026-4.582-.374-9.156-1.042-13.688.354-.007.695-.07 1.042-.07 30.395 0 55.034 24.64 55.034 55.034s-24.64 55.035-55.035 55.035z"/></g></g></svg>