<svg id="Capa_1" enable-background="new 0 0 330.248 330.248" height="512" viewBox="0 0 330.248 330.248" width="512" xmlns="http://www.w3.org/2000/svg"><g><g id="cloud"><path d="m247.697 110.102c-3.003 0-6.004.168-8.988.504-22.544-48.206-79.898-69.01-128.104-46.466-29.791 13.932-50.42 42.096-54.714 74.703-37.318 7.133-61.787 43.167-54.655 80.484 6.2 32.438 34.575 55.893 67.6 55.878h178.861c45.592 0 82.551-36.959 82.551-82.551s-36.959-82.552-82.551-82.552zm0 137.585h-178.861c-22.796 0-41.276-18.48-41.276-41.276s18.48-41.276 41.276-41.276c9.055-.035 17.86 2.968 25.005 8.53 6.093 4.54 14.713 3.281 19.253-2.812 4.416-5.927 3.36-14.284-2.391-18.926-7.932-6.102-17.121-10.362-26.903-12.472 6.555-37.393 42.182-62.393 79.575-55.838 25.161 4.411 45.801 22.41 53.593 46.737 2.114 6.808 3.197 13.894 3.211 21.023 0 7.599 6.16 13.759 13.759 13.759s13.759-6.16 13.759-13.759c-.026-4.582-.375-9.156-1.044-13.688.348-.007.696-.07 1.044-.07 30.395 0 55.034 24.64 55.034 55.034s-24.64 55.034-55.034 55.034z"/></g></g></svg>