<svg id="Capa_1" enable-background="new 0 0 385.239 385.239" height="512" viewBox="0 0 385.239 385.239" width="512" xmlns="http://www.w3.org/2000/svg"><g><g id="cloud_sun"><path d="m27.517 151.344h-13.758c-7.599 0-13.759 6.16-13.759 13.758s6.16 13.759 13.759 13.759h13.759c7.599 0 13.759-6.16 13.759-13.759s-6.161-13.758-13.76-13.758z"/><path d="m225.149 96.998 9.727-9.727c5.305-5.441 5.194-14.151-.246-19.456-5.344-5.21-13.866-5.21-19.21 0l-9.727 9.727c-5.441 5.305-5.551 14.015-.246 19.456s14.015 5.551 19.456.246c.083-.081.165-.163.246-.246z"/><path d="m137.585 68.793c7.599 0 13.759-6.16 13.759-13.759v-13.758c0-7.599-6.16-13.759-13.759-13.759s-13.759 6.16-13.759 13.759v13.759c.001 7.598 6.161 13.758 13.759 13.758z"/><path d="m69.481 96.998c5.372-5.373 5.372-14.083 0-19.456l-9.727-9.727c-5.442-5.303-14.152-5.191-19.456.25-5.209 5.345-5.207 13.867.004 19.21l9.727 9.727c5.373 5.368 14.08 5.366 19.452-.004z"/><path d="m302.688 192.619c-3.003 0-6.004.168-8.988.504-14.695-30.733-44.385-51.549-78.286-54.887-14.684-43.071-61.503-66.085-104.574-51.402s-66.085 61.502-51.402 104.573c5.306 15.566 15.149 29.188 28.263 39.113-32.307 19.901-42.365 62.223-22.464 94.53 12.525 20.333 34.709 32.703 58.59 32.671h178.861c45.592 0 82.551-36.959 82.551-82.551s-36.96-82.551-82.551-82.551zm-220.137-27.517c.008-30.404 24.662-55.044 55.066-55.036 20.487.006 39.276 11.387 48.769 29.541l-.226.063c-37.07 7.834-66.05 36.762-73.952 73.817-.03.138-.088.275-.117.413-18.134-9.529-29.505-28.312-29.54-48.798zm220.137 165.103h-178.861c-22.796 0-41.276-18.48-41.276-41.276s18.48-41.276 41.276-41.276c9.055-.035 17.86 2.968 25.005 8.53 6.093 4.54 14.713 3.281 19.253-2.812 4.416-5.927 3.36-14.284-2.391-18.926-7.919-6.092-17.093-10.348-26.858-12.461 6.113-32.615 34.362-56.406 67.542-56.882 29.903-.025 56.399 19.265 65.561 47.73 2.134 6.818 3.224 13.919 3.232 21.063 0 7.599 6.16 13.759 13.759 13.759s13.759-6.16 13.759-13.759c-.026-4.582-.374-9.156-1.042-13.688.347 0 .688-.07 1.042-.07 30.395 0 55.034 24.64 55.034 55.034s-24.641 55.034-55.035 55.034z"/></g></g></svg>