<svg id="Line" enable-background="new 0 0 32 32" height="512" viewBox="0 0 32 32" width="512" xmlns="http://www.w3.org/2000/svg"><path id="XMLID_138_" d="m17 27v2c0 .552-.448 1-1 1s-1-.448-1-1v-2c0-.552.448-1 1-1s1 .448 1 1z"/><path id="XMLID_147_" d="m30 16c0 .552-.448 1-1 1h-2c-.552 0-1-.448-1-1s.448-1 1-1h2c.552 0 1 .448 1 1z"/><path id="XMLID_149_" d="m6 16c0 .552-.448 1-1 1h-2c-.552 0-1-.448-1-1s.448-1 1-1h2c.552 0 1 .448 1 1z"/><path id="XMLID_161_" d="m8.707 23.293c.391.391.391 1.023 0 1.414l-1.192 1.192c-.391.391-1.023.391-1.414 0s-.391-1.023 0-1.414l1.192-1.192c.391-.391 1.023-.391 1.414 0z"/><path id="XMLID_166_" d="m25.899 24.485c.391.391.391 1.023 0 1.414s-1.023.391-1.414 0l-1.192-1.192c-.391-.391-.391-1.023 0-1.414s1.023-.391 1.414 0z"/><path id="XMLID_171_" d="m16 2c.552 0 1 .448 1 1v2c0 .552-.448 1-1 1s-1-.448-1-1v-2c0-.552.448-1 1-1z"/><path id="XMLID_176_" d="m7.515 6.101 1.192 1.192c.391.391.391 1.023 0 1.414s-1.023.391-1.414 0l-1.192-1.192c-.391-.391-.391-1.023 0-1.414s1.023-.391 1.414 0z"/><path id="XMLID_178_" d="m23.293 8.707c-.391-.391-.391-1.023 0-1.414l1.192-1.192c.391-.391 1.023-.391 1.414 0s.391 1.023 0 1.414l-1.192 1.192c-.391.391-1.023.391-1.414 0z"/><path id="XMLID_180_" d="m16 8c-4.411 0-8 3.589-8 8s3.589 8 8 8 8-3.589 8-8-3.589-8-8-8zm0 14c-3.309 0-6-2.691-6-6s2.691-6 6-6 6 2.691 6 6-2.691 6-6 6z"/></svg>