<svg id="Capa_1" enable-background="new 0 0 412.772 412.772" height="512" viewBox="0 0 412.772 412.772" width="512" xmlns="http://www.w3.org/2000/svg"><g><g id="Cloud_thunder-2"><path d="m288.962 55.056c-3.069.028-6.135.232-9.181.61-22.401-48.179-79.618-69.076-127.796-46.674-29.885 13.896-50.577 42.122-54.836 74.804-37.318 7.133-61.787 43.167-54.655 80.484 6.2 32.44 34.58 55.896 67.607 55.878h41.276c7.599 0 13.759-6.16 13.759-13.759s-6.16-13.759-13.759-13.759h-41.276c-22.796 0-41.276-18.48-41.276-41.276s18.48-41.276 41.276-41.276c9.051-.038 17.852 2.966 24.991 8.53 6.003 4.66 14.647 3.572 19.307-2.431s3.572-14.647-2.431-19.307c-7.933-6.099-17.122-10.359-26.903-12.472 6.551-37.391 42.173-62.392 79.564-55.841 25.149 4.406 45.783 22.389 53.584 46.699 2.134 6.818 3.224 13.919 3.232 21.063 0 7.599 6.16 13.759 13.759 13.759s13.759-6.16 13.759-13.759c-.026-4.582-.374-9.156-1.042-13.688.354-.007.695-.07 1.042-.07 30.395 0 55.034 24.64 55.034 55.034s-24.64 55.034-55.034 55.034h-27.517c-7.599 0-13.759 6.16-13.759 13.759s6.16 13.759 13.759 13.759h27.517c45.592 0 82.551-36.959 82.551-82.551s-36.96-82.55-82.552-82.55z"/><path d="m294.122 247.05h-65.514l17.05-79.025c1.6-7.428-3.124-14.747-10.552-16.347-5.035-1.085-10.254.734-13.525 4.712l-113.509 138.21c-4.824 5.871-3.974 14.541 1.897 19.365 2.461 2.022 5.547 3.127 8.731 3.128h53.314l-25.126 77.694c-2.334 7.231 1.636 14.986 8.867 17.32 4.983 1.609 10.448.249 14.096-3.508l134.146-138.21c5.291-5.454 5.159-14.164-.295-19.455-2.567-2.491-6.003-3.884-9.58-3.884zm-102.867 99.992 12.765-39.476c2.337-7.23-1.629-14.986-8.859-17.324-1.366-.442-2.792-.667-4.228-.667h-43.133l58.972-71.809-8.653 40.141c-1.603 7.428 3.12 14.748 10.547 16.351.953.206 1.926.309 2.902.309h50.022z"/></g></g></svg>